<?xml version="1.0" encoding="utf-8"?>
<!-- Generator: Adobe Illustrator 24.0.1, SVG Export Plug-In . SVG Version: 6.00 Build 0)  -->
<svg version="1.1" id="Layer_1" xmlns="http://www.w3.org/2000/svg" xmlns:xlink="http://www.w3.org/1999/xlink" x="0px" y="0px"
	 viewBox="0 0 1115.2 217.2" style="enable-background:new 0 0 1115.2 217.2;" xml:space="preserve">
<style type="text/css">
	.st0{fill:#E61937;}
	.st1{fill:#4B4D4F;}
	.st2{fill:#167CC1;}
	.st3{fill:none;stroke:#000000;stroke-width:0.6638;stroke-miterlimit:10;}
	.st4{fill:none;stroke:#000000;stroke-width:1.7589;stroke-miterlimit:10;}
</style>
<g>
	<g>
		<path class="st0" d="M45,112c-4,0-7.6,0-11.5,0c0-15.9,0-31.6,0-47.5c0.9-0.1,1.7-0.1,2.5-0.1c24.2,0,48.5,0,72.7,0
			c5.2,0,9.8,1.1,13.5,5.1c2.3,2.5,3.6,5.5,3.6,8.9c0.1,10.8,0,21.6,0,32.5c0,0.4-0.1,0.7-0.1,1.2c-3.8,0-7.6,0-11.5,0
			c0-1-0.1-1.8-0.1-2.7c0-9,0-18.1,0-27.1c0-5.3-3.2-8.6-8.5-8.6c-5.6-0.1-11.3,0-16.9,0c-2.6,0-3.3,0.6-3.3,3.3
			c0,10.7,0,21.5,0,32.2c0,0.9,0,1.8,0,2.9c-3.8,0-7.5,0-11.6,0c0-0.9,0-1.8,0-2.6c0-10.7,0-21.3,0-32c0-3.2-0.6-3.7-3.8-3.7
			c-7.1,0-14.2,0-21.3,0c-3.2,0-3.7,0.6-3.7,3.8c0,10.6,0,21.2,0,31.8C45,110,45,110.9,45,112z"/>
		<path class="st0" d="M432.3,64.5c-1.5,3-2.7,5.7-4.1,8.2c-0.3,0.5-1.4,0.8-2.1,0.8c-6.1,0.1-12.1,0-18.2,0c-6.2,0-9.4,3.1-9.4,9.3
			c0,5.7,0,11.4,0,17.1c0,2.1,0.9,3.2,3,3.2c11.6,0,23.3,0,34.9,0c0.4,0,0.7-0.1,1.3-0.2c0-0.9,0-1.8,0-2.7c0-16.9,0-33.8,0-50.7
			c0-2,0.6-2.6,2.5-2.5c2.4,0.1,4.9,0.1,7.3,0c1.3,0,1.9,0.4,1.9,1.8c0,20.7,0,41.3,0,62c0,0.4-0.1,0.7-0.3,1.3c-0.8,0-1.6,0-2.4,0
			c-16.7,0-33.5,0-50.2,0c-5.9,0-9.5-3.7-9.5-9.6c0-7.3,0-14.7,0-22c0-9.6,5.1-15.5,14.6-16C411.7,64.1,421.7,64.5,432.3,64.5z"/>
		<path class="st0" d="M144.3,73.5c1.4-3,2.7-5.7,4-8.3c0.2-0.4,1.1-0.8,1.6-0.8c12.2,0,24.4-0.1,36.7,0.2
			c7.6,0.2,13.5,6.5,13.6,14.1c0.1,10.6,0,21.2,0,31.8c0,0.4-0.1,0.9-0.2,1.5c-0.8,0-1.6,0.1-2.4,0.1c-17.3,0-34.7,0-52,0
			c-5.2,0-9-3.4-9.2-8.5c-0.2-4.3-0.1-8.6,0.1-12.9c0.2-3.7,3.3-6.8,7-6.9c10.2-0.2,20.4-0.1,30.7-0.1c0.1,0,0.2,0.1,0.7,0.4
			c-0.9,1.9-1.7,3.8-2.8,5.6c-0.2,0.4-1.3,0.5-2,0.5c-6.4,0-12.9,0-19.3,0c-2.8,0-3.2,0.4-3.2,3.2c0,2.1,0,4.1,0,6.2
			c0,2.9,0.5,3.3,3.4,3.3c3.3,0,6.5,0,9.8,0c8.5,0,17,0,25.6,0c1.8,0,2.3-0.6,2.3-2.3c-0.1-6.1,0-12.1,0-18.2c0-5.9-3.2-9-9.1-9
			c-10.8,0-21.6,0-32.4,0C146.3,73.5,145.5,73.5,144.3,73.5z"/>
		<path class="st0" d="M515.2,73.5c1.5-3.1,2.6-5.7,4-8.2c0.3-0.5,1.2-0.9,1.8-0.9c12.3,0,24.6-0.1,36.9,0.3
			c7.1,0.2,13,6.5,13.1,13.6c0.2,10.9,0.1,21.8,0.1,32.7c0,0.3-0.1,0.6-0.2,1.1c-0.8,0-1.6,0.1-2.3,0.1c-17.3,0-34.7,0-52,0
			c-5.2,0-8.9-3.4-9.2-8.5c-0.2-4.1-0.2-8.3,0.1-12.4c0.2-4.1,3.4-7.3,7.5-7.4c9.9-0.1,19.9-0.1,29.8-0.1c0.3,0,0.5,0.1,1.1,0.3
			c-0.9,2-1.7,3.9-2.7,5.6c-0.3,0.5-1.4,0.7-2.1,0.7c-6.4,0-12.9,0-19.3,0c-2.8,0-3.2,0.4-3.2,3.3c0,1.9,0,3.9,0,5.8
			c0,3.3,0.4,3.7,3.7,3.7c8.6,0,17.2,0,25.8,0c3,0,5.9-0.1,8.9,0c2,0.1,2.7-0.4,2.7-2.6c-0.1-6,0-12,0-18c0-5.9-3.2-9-9.1-9
			c-10.7,0-21.3,0-32,0C517.4,73.5,516.6,73.5,515.2,73.5z"/>
		<path class="st1" d="M175.6,146.8c0,2.8,0,5.3,0,8.3c10.1,0,20.1,0,30.2,0c0,3.3,0,6.2,0,9.5c-10,0-20,0-30.1,0c0,3.3,0,6.2,0,9.5
			c11.1,0,22.2,0,33.8,0c0,3.3,0,6.4,0,9.4c0,0.3-0.7,0.7-1.1,0.8c-0.6,0.1-1.2,0.1-1.8,0.1c-13.9,0-27.9,0-41.8,0
			c-0.8,0-1.6,0-2.6,0c0-15.9,0-31.6,0-47.5c15.1,0,30.2,0,45.5,0c0,3.3,0,6.5,0,10C197,146.8,186.4,146.8,175.6,146.8z"/>
		<path class="st1" d="M462,164.6c0,3.2,0,6.1,0,9.3c11.1,0,22.3,0,33.6,0c0,3.4,0,6.7,0,10.1c-15.6,0-31.2,0-47.1,0
			c0-15.7,0-31.4,0-47.3c15.2,0,30.3,0,45.6,0c0,3.3,0,6.5,0,10c-10.7,0-21.3,0-32.1,0c0,2.8,0,5.4,0,8.3c10.1,0,20,0,30.1,0
			c0,3.3,0,6.3,0,9.5C482.1,164.6,472.1,164.6,462,164.6z"/>
		<path class="st1" d="M265,138.5c-0.8,3.3-1.5,6.3-2.3,9.2c-4.4-0.7-8.6-1.7-12.8-1.9c-4.7-0.3-9.4,0-14.2,0.2
			c-0.9,0-1.9,0.5-2.7,0.9c-2.6,1.5-2.7,4.6,0.1,5.7c3,1.2,6.2,1.7,9.4,2.4c5.3,1.1,10.8,1.9,16,3.3c4.2,1.2,7.8,3.5,9.1,8.2
			c1.7,6.1-0.7,11.6-6.2,14.7c-5.2,2.8-11,3.5-16.7,3.8c-9.4,0.5-18.6-0.6-27.7-2.9c-0.7-0.2-1.4-0.4-2.1-0.7
			c0.8-3.2,1.6-6.3,2.3-8.9c7.3,1.1,14.3,2.4,21.4,3.1c3.7,0.4,7.5-0.3,11.2-0.6c0.8-0.1,1.7-0.5,2.4-1c2.1-1.4,2.1-4-0.2-5
			c-2.2-1-4.6-1.6-7-2.1c-5.9-1.3-11.9-2.4-17.8-3.6c-1.4-0.3-2.8-1-4.1-1.7c-4.4-2.3-6.7-6-6.6-11c0.1-5.1,2.4-8.9,7-11.2
			c4.2-2.1,8.7-2.9,13.3-3.2C246.4,135.4,255.6,136.2,265,138.5z"/>
		<path class="st1" d="M551.2,138.7c-0.7,3-1.5,6-2.2,9c-4.4-0.7-8.5-1.6-12.7-1.9c-4.7-0.3-9.4,0-14.2,0.1c-0.9,0-2,0.3-2.7,0.9
			c-0.9,0.8-1.9,1.9-1.9,2.9c0,1,1,2.5,1.9,2.8c3.1,1,6.2,1.7,9.4,2.4c4.7,1,9.5,1.7,14.1,2.7c1.6,0.3,3.2,1.1,4.7,1.8
			c4.1,1.9,6.4,5.1,6.6,9.7c0.2,4.9-1.6,8.8-5.8,11.4c-3.9,2.4-8.2,3.4-12.6,3.9c-11.2,1.3-22.3,0.1-33.2-2.6
			c-0.5-0.1-1-0.4-1.6-0.6c0.8-3.1,1.6-6.2,2.3-9.1c5.5,1,10.8,2.4,16.2,2.8c5.3,0.5,10.6,0.1,15.9,0c0.7,0,1.6-0.2,2.1-0.7
			c0.9-0.9,2.2-2,2.2-3c0-1-1.2-2.5-2.2-2.8c-3.7-1.1-7.6-1.8-11.4-2.7c-5.1-1.2-10.4-1.9-15.2-3.8c-8.5-3.4-10.8-13.5-5-19.9
			c2.9-3.2,6.9-4.6,11-5.3c11.2-2,22.4-1.2,33.5,1.4C550.7,138.3,550.8,138.5,551.2,138.7z"/>
		<path class="st1" d="M289.6,171.2c0,4.3,0,8.5,0,13c-4.3,0-8.4,0-12.4-0.1c-0.4,0-0.9-1-1-1.5c-0.1-2.5-0.1-5-0.1-7.6
			c0-12.1,0-24.1,0-36.2c0-2,0.6-2.5,2.5-2.6c8.7-0.1,17.3-0.4,26-0.3c4.1,0,8.3,0.5,12.3,1.3c8.5,1.6,11.9,5.5,12.4,14.2
			c0.2,2.6-0.1,5.2-0.5,7.7c-1.1,6.8-5.9,10.1-12.2,11.1c-4.5,0.7-9.1,0.8-13.7,0.9C298.6,171.4,294.3,171.2,289.6,171.2z
			 M298.8,145.3c0,0.1,0,0.2,0,0.3c-2.4,0-4.9,0-7.3,0c-1.3,0-1.9,0.3-1.9,1.7c0,4.1,0,8.3,0,12.4c0,1.4,0.6,1.8,1.9,1.8
			c2.9,0,5.8,0.3,8.7,0.2c3.5-0.2,7-0.3,10.3-1.1c1.6-0.3,3.5-1.6,4.3-3.1c3-5.3,0.2-10.7-5.7-11.6
			C305.6,145.5,302.2,145.5,298.8,145.3z"/>
		<path class="st0" d="M374.7,112.2c-3.5,0-6.7-0.1-10,0c-1.8,0-1.6-1.2-1.6-2.2c0-8.9,0-17.8-0.1-26.7c0-1.9-0.2-3.9-1-5.6
			c-1.3-2.8-3.9-4.1-6.9-4.1c-9.2-0.1-18.4,0-27.6,0c-0.2,0-0.4,0.1-1,0.2c0,12.6,0,25.3,0,38.2c-4.1,0-7.8,0-11.6,0
			c0-15.8,0-31.4,0-47.3c1,0,1.8-0.1,2.7-0.1c13.6-0.1,27.1-0.1,40.7-0.2c8.5,0,14.6,4.5,16.2,12c0.1,0.7,0.2,1.5,0.2,2.2
			c0,10.7,0,21.3,0,32C374.9,111,374.8,111.4,374.7,112.2z"/>
		<path class="st1" d="M328.5,184.3c2.3-5.2,4.4-10,6.6-14.7c4.7-10.4,9.4-20.7,14-31.2c0.7-1.6,1.5-2.2,3.3-2.1
			c3.7,0.1,7.4,0,11.1,0.1c0.7,0,1.7,0.6,2,1.1c7,15.2,13.8,30.4,20.7,45.7c0.1,0.2,0.1,0.6,0.2,1.1c-4.8,0-9.4,0-14.1-0.1
			c-0.5,0-1.2-0.7-1.5-1.3c-0.9-1.9-1.7-3.9-2.5-5.9c-0.4-1.1-1-1.6-2.3-1.6c-6,0.1-12,0-18,0.1c-0.7,0-1.7,0.7-2.1,1.4
			c-1,2-1.7,4.1-2.7,6.1c-0.3,0.5-1,1.2-1.5,1.2C337.6,184.3,333.3,184.3,328.5,184.3z M364.5,165.8c-2.4-6.4-4.7-12.5-7.1-18.5
			c-0.2,0-0.4,0.1-0.6,0.1c-2.3,6.1-4.6,12.2-7,18.4C354.9,165.8,359.5,165.8,364.5,165.8z"/>
		<path class="st1" d="M439.2,138.4c-0.9,3.1-1.7,6.1-2.6,9.4c-3-0.4-5.9-1-8.8-1.1c-4.9-0.1-9.9-0.3-14.8,0.3
			c-6.1,0.7-9.4,4.3-10.4,10.2c-0.4,2.5-0.4,5.2,0,7.7c0.9,5.8,5.1,9,11.9,9.7c7.5,0.8,14.9-0.1,22.3-1.5c0.4-0.1,0.9-0.1,1.5-0.3
			c0.8,3,1.6,6,2.5,9.4c-2.8,0.6-5.5,1.4-8.2,1.8c-9,1.3-18.1,1.9-27.1-0.1c-10.9-2.5-16.3-8.9-17-20.1c-0.3-5.4,0.2-10.8,2.8-15.8
			c3.3-6.2,8.8-9.3,15.3-10.7c10.4-2.3,20.9-1.8,31.2,0.7C438.2,138,438.6,138.1,439.2,138.4z"/>
		<path class="st1" d="M150.5,158.9c0,3.5,0,6.7,0,10.1c-9.2,0-18.3,0-27.7,0c0,5.1,0,10,0,15.1c-4.6,0-9,0-13.5,0
			c0-15.7,0-31.4,0-47.3c0.7,0,1.4-0.1,2.2-0.1c13.5,0,27,0,40.5-0.1c2.1,0,2.7,0.6,2.6,2.6c-0.2,2.5,0,5,0,7.8c-10.6,0-21,0-31.6,0
			c0,4.1,0,7.8,0,11.9C132,158.9,141.2,158.9,150.5,158.9z"/>
		<path class="st1" d="M33.4,160.5c0-7.2,0.1-14.4,0-21.5c0-1.9,0.6-2.4,2.4-2.3c2.9,0.1,5.8,0.1,8.7,0c2-0.1,2.7,0.5,2.6,2.6
			c-0.1,10.5,0,21,0,31.5c0,2.8,0,2.9,2.9,2.9c8.4,0,16.9,0,25.3,0c1.8,0,2.3,0.5,2.2,2.3c-0.1,2.2-0.1,4.4,0,6.7
			c0,1.3-0.3,1.9-1.7,1.9c-13.5,0-27.1,0-40.6,0c-1.6,0-1.8-0.8-1.7-2.1C33.4,175,33.4,167.7,33.4,160.5z"/>
		<path class="st0" d="M511,64.7c-1.3,2.8-2.5,5.4-3.9,8c-0.3,0.5-1.3,0.8-2,0.8c-5.8,0.1-11.6,0-17.3,0c-6.5,0-9.6,3-9.6,9.5
			c0,8.7,0,17.5,0,26.2c0,0.9,0,1.7,0,2.8c-3.9,0-7.6,0-11.5,0c0-0.8-0.1-1.6-0.1-2.4c0-9.9,0-19.7,0-29.6c0-9.1,5.4-15.1,14.5-15.5
			c9.6-0.4,19.3-0.2,28.9-0.2C510.2,64.4,510.4,64.6,511,64.7z"/>
		<path class="st0" d="M273.6,112c-3.9,0-7.5,0-11.6,0c0-0.8,0-1.7,0-2.5c0-9,0-17.9,0-26.9c0-5.8-3.3-9-9.1-9.1c-7,0-13.9,0-20.9,0
			c-0.8,0-1.6,0-2.9,0c1.5-3.1,2.8-5.9,4.2-8.6c0.2-0.4,1-0.6,1.6-0.6c8.4,0,16.7-0.1,25.1,0.2c7.9,0.3,13.5,6.6,13.6,14.5
			c0,10.2,0,20.4,0,30.7C273.6,110.5,273.6,111.1,273.6,112z"/>
		<path class="st0" d="M212.8,47.2c3.9,0,7.7,0,11.6,0c0,21.6,0,43.1,0,64.8c-3.9,0-7.7,0-11.6,0C212.8,90.4,212.8,68.9,212.8,47.2z
			"/>
		<path class="st1" d="M97.8,136.6c0,16,0,31.6,0,47.4c-4.4,0-8.7,0-13.3,0c-0.1-0.6-0.2-1.4-0.2-2.1c0-14.4,0-28.7,0-43.1
			c0-1.7,0.4-2.4,2.2-2.3C90.2,136.7,93.8,136.6,97.8,136.6z"/>
		<path class="st0" d="M300.1,60.9c0,17.3,0,34.2,0,51.2c-3.8,0-7.5,0-11.4,0c-0.1-0.8-0.2-1.7-0.2-2.5c0-13.3,0-26.5,0-39.8
			c0-1.7,0.5-2.7,2-3.5C293.6,64.7,296.6,62.8,300.1,60.9z"/>
		<path class="st0" d="M288.5,60.6c0-4.5,0-8.4,0.1-12.3c0-0.4,0.8-1.2,1.3-1.2c3.3-0.1,6.6-0.1,10.3-0.1c0,2.2,0,4.2,0,6.2
			c0,0.4-0.3,0.9-0.6,1.1C296,56.3,292.5,58.3,288.5,60.6z"/>
	</g>
	<g>
		<g>
			<path class="st2" d="M648.5,95.3V53.5h8l24.7,30.1h-3.9V53.5h9.5v41.8h-8l-24.7-30.1h3.9v30.1H648.5z"/>
			<path class="st2" d="M706.4,87.6h22.7v7.8h-32.4V53.5h31.6v7.8h-21.9V87.6z M705.6,70.3h20.1v7.6h-20.1V70.3z"/>
			<path class="st2" d="M746.3,95.3l-13.7-41.8h10l11.9,37h-5l12.4-37h8.9l11.9,37h-4.8l12.2-37h9.3l-13.7,41.8h-10.3l-10.7-32.5
				h2.7l-10.9,32.5H746.3z"/>
			<path class="st2" d="M822.5,95.3V53.5h9.7v33.9h20.8v7.9H822.5z"/>
			<path class="st2" d="M853.3,95.3l18.6-41.8h9.5l18.7,41.8H890l-15.4-36.9h3.9l-15.4,36.9H853.3z M862.7,86.3l2.5-7.3h21.6
				l2.5,7.3H862.7z"/>
			<path class="st2" d="M922.2,96c-5.9,0-10.5-1.7-13.9-5c-3.3-3.3-5-8-5-14.2V53.5h9.7v23.1c0,4,0.8,6.8,2.5,8.6
				c1.6,1.8,3.9,2.7,6.8,2.7c2.9,0,5.2-0.9,6.9-2.7c1.6-1.8,2.5-4.6,2.5-8.6V53.5h9.5v23.3c0,6.2-1.7,10.9-5,14.2
				C932.7,94.4,928.1,96,922.2,96z"/>
			<path class="st2" d="M950.7,95.3V53.5h8l24.7,30.1h-3.9V53.5h9.5v41.8h-8l-24.7-30.1h3.9v30.1H950.7z"/>
			<path class="st2" d="M1018.9,96c-3.2,0-6.2-0.5-9-1.6c-2.8-1.1-5.1-2.6-7.2-4.5c-2-1.9-3.6-4.2-4.8-6.9c-1.1-2.6-1.7-5.5-1.7-8.7
				c0-3.2,0.6-6,1.7-8.7c1.1-2.6,2.7-4.9,4.8-6.9c2-1.9,4.4-3.4,7.2-4.5c2.8-1.1,5.8-1.6,9-1.6c3.6,0,6.9,0.6,9.8,1.9
				c2.9,1.2,5.4,3.1,7.4,5.5l-6.3,5.7c-1.4-1.6-3-2.9-4.8-3.7c-1.8-0.9-3.7-1.2-5.8-1.2c-1.9,0-3.7,0.3-5.4,1s-3.1,1.6-4.2,2.8
				c-1.2,1.2-2.1,2.6-2.8,4.2c-0.6,1.6-1,3.4-1,5.4s0.3,3.8,1,5.4s1.6,3.1,2.8,4.2c1.2,1.2,2.6,2.1,4.2,2.8c1.6,0.6,3.4,1,5.4,1
				c2.1,0,4-0.4,5.8-1.3c1.8-0.9,3.4-2.1,4.8-3.7l6.3,5.7c-2,2.4-4.4,4.3-7.4,5.6C1025.9,95.4,1022.5,96,1018.9,96z"/>
			<path class="st2" d="M1052.4,95.3h-9.7V53.5h9.7V95.3z M1072,78.2h-20.4V70h20.4V78.2z M1071.3,53.5h9.7v41.8h-9.7V53.5z"/>
			<path class="st2" d="M650.4,178.9v-41.8h3.6l19.1,32.6h-1.9l18.9-32.6h3.6v41.8h-4.2v-35.2h1l-17.4,29.9h-2.1l-17.6-29.9h1.1
				v35.2H650.4z"/>
			<path class="st2" d="M700.7,178.9l19.1-41.8h4.3l19.1,41.8h-4.7L721,139.6h1.8l-17.5,39.2H700.7z M708.2,167.7l1.3-3.6h24.3
				l1.3,3.6H708.2z"/>
			<path class="st2" d="M750.2,178.9v-41.8h4.4V175H778v3.8L750.2,178.9L750.2,178.9z"/>
			<path class="st2" d="M802.8,179.3c-3.2,0-6.1-0.5-8.8-1.6c-2.7-1.1-5-2.5-7-4.4c-2-1.9-3.5-4.2-4.6-6.7c-1.1-2.6-1.7-5.4-1.7-8.5
				c0-3.1,0.5-5.9,1.7-8.5c1.1-2.6,2.6-4.8,4.6-6.7c2-1.9,4.3-3.4,7-4.4c2.7-1.1,5.6-1.6,8.8-1.6s6.1,0.5,8.7,1.5
				c2.6,1,4.9,2.5,6.8,4.5l-2.7,2.8c-1.8-1.8-3.7-3-5.8-3.7c-2.1-0.7-4.4-1.1-6.8-1.1c-2.6,0-5,0.4-7.1,1.3
				c-2.2,0.9-4.1,2.1-5.7,3.6s-2.9,3.4-3.7,5.5c-0.9,2.1-1.3,4.4-1.3,6.9c0,2.5,0.4,4.8,1.3,6.9c0.9,2.1,2.1,4,3.7,5.5
				c1.6,1.6,3.5,2.8,5.7,3.6s4.5,1.3,7.1,1.3c2.4,0,4.7-0.4,6.8-1.1s4.1-1.9,5.9-3.6l2.5,3.3c-2,1.8-4.3,3.1-7,4
				C808.5,178.8,805.7,179.3,802.8,179.3z M813.9,173.4V158h4.2v16L813.9,173.4z"/>
			<path class="st2" d="M847.5,179.3c-5.4,0-9.5-1.6-12.6-4.6c-3.1-3.1-4.6-7.6-4.6-13.6v-23.9h4.4v23.8c0,4.9,1.1,8.6,3.3,10.9
				c2.2,2.4,5.4,3.5,9.4,3.5c4.1,0,7.3-1.2,9.5-3.5c2.2-2.4,3.3-6,3.3-10.9v-23.8h4.3v23.9c0,6-1.5,10.5-4.5,13.6
				C857,177.7,852.8,179.3,847.5,179.3z"/>
			<path class="st2" d="M877.9,178.9v-41.8h17c4.4,0,8.3,0.9,11.7,2.7s6,4.2,7.9,7.4c1.9,3.2,2.8,6.7,2.8,10.9
				c0,4.1-0.9,7.7-2.8,10.9c-1.9,3.2-4.5,5.6-7.9,7.4c-3.4,1.8-7.3,2.7-11.7,2.7L877.9,178.9L877.9,178.9z M882.3,175.1h12.4
				c3.7,0,6.9-0.7,9.6-2.2c2.7-1.4,4.9-3.5,6.4-6c1.5-2.6,2.2-5.5,2.2-8.9s-0.7-6.4-2.2-8.9c-1.5-2.6-3.6-4.5-6.4-6
				c-2.7-1.4-5.9-2.2-9.6-2.2h-12.4V175.1L882.3,175.1z"/>
			<path class="st2" d="M927.2,178.9v-41.8h4.4v41.8H927.2z"/>
		</g>
		<line class="st3" x1="643.6" y1="117" x2="1081.9" y2="117"/>
	</g>
	<line class="st4" x1="607.3" y1="19" x2="607.3" y2="198.2"/>
</g>
</svg>
